<?xml version="1.0" encoding="utf-8"?>
<!-- Generator: Adobe Illustrator 23.0.3, SVG Export Plug-In . SVG Version: 6.00 Build 0)  -->
<svg version="1.1" id="Layer_1" xmlns="http://www.w3.org/2000/svg" xmlns:xlink="http://www.w3.org/1999/xlink" x="0px" y="0px"
	 viewBox="0 0 67.7 159.8" style="enable-background:new 0 0 67.7 159.8;" xml:space="preserve">
<style type="text/css">
	.st0{fill:#FFFFFF;}
</style>
<rect id="Rectangle_15" x="-0.1" y="-0.1" width="68" height="160"/>
<path id="Path_5" class="st0" d="M41.4,56.2H24.6c-0.3,0-0.6,0.2-0.6,0.6v1c0,0.3,0.2,0.6,0.5,0.6c0,0,0,0,0,0h18.2
	c0.3,0,0.6-0.2,0.6-0.5c0,0,0,0,0,0v-6.1c0-0.3-0.2-0.6-0.5-0.6c0,0,0,0,0,0H42c-0.3,0-0.5,0.3-0.6,0.6L41.4,56.2z M24.6,65.5
	c-0.3,0-0.6,0.2-0.6,0.5c0,0,0,0,0,0v0.9c0,0.3,0.2,0.6,0.5,0.6c0,0,0,0,0,0h8.1v4.1h-8.1c-0.3,0-0.5,0.2-0.6,0.5c0,0,0,0,0,0V73
	c0,0.3,0.2,0.6,0.5,0.6c0,0,0,0,0,0h18.2c0.3,0,0.6-0.2,0.6-0.5c0,0,0,0,0,0v-0.9c0-0.3-0.2-0.6-0.5-0.6c0,0,0,0,0,0h-8.3v-4.1h8.3
	c0.3,0,0.6-0.2,0.6-0.5c0,0,0,0,0,0V66c0-0.3-0.2-0.6-0.5-0.6c0,0,0,0,0,0L24.6,65.5z M23.7,83.7c-0.1,2.2,1.7,4.1,3.9,4.2
	c0.1,0,0.1,0,0.2,0h11.8c2.2,0,4-1.8,4-4.1c0,0,0-0.1,0-0.1c0.1-2.3-1.7-4.2-3.9-4.2c0,0-0.1,0-0.1,0H27.8c-2.3,0-4.1,1.8-4.1,4.1
	C23.7,83.6,23.7,83.6,23.7,83.7z M39.6,81.4c1.2,0,2.2,1,2.2,2.2c0,1.2-1,2.2-2.2,2.2c0,0,0,0,0,0H27.8c-1.2,0-2.2-1-2.2-2.2
	c0-1.2,1-2.2,2.2-2.2H39.6z M31.6,93.2h-3.5c-2.3,0-4.1,1.8-4.1,4.1c0,0,0,0,0,0v3.8c0,0.3,0.2,0.6,0.5,0.6c0,0,0.1,0,0.1,0h18.2
	c0.3,0,0.6-0.2,0.6-0.5c0,0,0,0,0,0v-0.9c0-0.3-0.2-0.6-0.5-0.6c0,0,0,0,0,0h-7.2v-2.4c0.1-1.2,1.1-2.1,2.3-2.1h4.9
	c0.3,0,0.6-0.2,0.6-0.5c0,0,0,0,0,0v-0.9c0-0.3-0.2-0.6-0.5-0.6c0,0,0,0,0,0h-4.9c-1.2,0-2.3,0.5-3.1,1.4
	C34,93.7,32.8,93.2,31.6,93.2L31.6,93.2z M31.6,95.2c1.2,0,2.1,0.9,2.1,2.1v2.4H26v-2.4c0-1.2,1-2.1,2.2-2.1H31.6z M24,106.7v8.3
	c0,0.3,0.2,0.6,0.5,0.6c0,0,0,0,0,0h0.8c0.3,0,0.6-0.3,0.6-0.6c0,0,0,0,0,0v-3.1h16.8c0.3,0,0.6-0.2,0.6-0.5c0,0,0,0,0-0.1v-0.9
	c0-0.3-0.2-0.6-0.6-0.6c0,0,0,0,0,0H25.9v-3c0-0.3-0.2-0.6-0.5-0.6c0,0,0,0,0,0h-0.8C24.3,106.1,24,106.4,24,106.7
	C24,106.7,24,106.7,24,106.7z M39.4,127.9c2.3,0,4.2-1.9,4.2-4.2c0,0,0,0,0,0c0.1-2.2-1.6-4-3.8-4.1c-0.1,0-0.2,0-0.3,0h-1.7
	c-0.9,0-1.9,0.2-2.7,0.7c-1.3,0.9-2.4,2-3.3,3.4c-0.5,0.9-1.2,1.6-2,2.1c-0.7,0.2-1.5,0.3-2.2,0.2c-1.2,0-2.1-1-2.1-2.2c0,0,0,0,0,0
	c0-1.2,1-2.1,2.2-2.2h1.5c0.3,0,0.6-0.2,0.6-0.5c0,0,0,0,0,0v-0.8c0-0.3-0.2-0.6-0.5-0.6c0,0,0,0,0,0h-1.4c-2.3,0-4.2,1.8-4.2,4.1
	s1.8,4.2,4.1,4.2c0,0,0.1,0,0.1,0h0.3c0.8,0,1.7-0.1,2.5-0.3c1.2-0.7,2.2-1.6,2.9-2.9c0.6-1.1,1.5-2,2.6-2.7
	c0.7-0.4,1.4-0.5,2.2-0.5h1.3c1.4,0.1,2.2,0.7,2.2,2.2c0,1.2-1,2.2-2.2,2.2h-2.3c-0.3,0-0.6,0.3-0.6,0.6v0.8c0,0.3,0.2,0.6,0.5,0.6
	c0,0,0.1,0,0.1,0H39.4z"/>
</svg>
